<svg width="22" height="24" viewBox="0 0 22 24" fill="none" xmlns="http://www.w3.org/2000/svg">
<path d="M20.8797 17.373V22.9197H16.9277H10.9997H5.07166H1.11966V17.373" stroke="#25386C" stroke-width="1.5" stroke-linecap="round" stroke-linejoin="round"/>
<path d="M17.8393 14.5996C18.6456 14.5996 19.4188 14.8918 19.9889 15.4119C20.559 15.932 20.8793 16.6374 20.8793 17.3729" stroke="#25386C" stroke-width="1.5" stroke-linecap="round" stroke-linejoin="round"/>
<path d="M1.11966 17.3729C1.11966 16.6374 1.43994 15.932 2.01005 15.4119C2.58017 14.8918 3.3534 14.5996 4.15966 14.5996" stroke="#25386C" stroke-width="1.5" stroke-linecap="round" stroke-linejoin="round"/>
<path d="M17.8392 14.5996H16.3192" stroke="#25386C" stroke-width="1.5" stroke-linecap="round" stroke-linejoin="round"/>
<path d="M4.23965 14.6001C7.0028 14.6001 8.81565 14.6001 8.81565 12.3467C7.28422 11.341 6.52765 9.65251 6.52765 7.84008V6.33786C6.52765 3.10808 8.05299 1.08008 11.1037 1.08008C14.1543 1.08008 15.6797 3.09531 15.6797 6.33786V7.08897C15.6797 11.2148 14.1192 13.849 11.8152 13.849" stroke="#25386C" stroke-width="1.5" stroke-linecap="round" stroke-linejoin="round"/>
</svg>
