<svg width="48" height="50" viewBox="0 0 48 50" fill="none" xmlns="http://www.w3.org/2000/svg">
<path d="M43.0008 35.332V45.9989H35.4007H24.0004H12.6002H5V35.332" stroke="#25386C" stroke-width="3" stroke-linecap="round" stroke-linejoin="round"/>
<path d="M37.1543 29.999C38.7048 29.999 40.1919 30.5609 41.2882 31.5612C42.3846 32.5614 43.0006 33.918 43.0006 35.3325" stroke="#25386C" stroke-width="3" stroke-linecap="round" stroke-linejoin="round"/>
<path d="M5 35.3325C5 33.918 5.61595 32.5614 6.71234 31.5612C7.80873 30.5609 9.29575 29.999 10.8463 29.999" stroke="#25386C" stroke-width="3" stroke-linecap="round" stroke-linejoin="round"/>
<path d="M37.1536 29.999H34.2305" stroke="#25386C" stroke-width="3" stroke-linecap="round" stroke-linejoin="round"/>
<path d="M11 30.0006C16.3138 30.0006 19.8002 30.0006 19.8002 25.6671C16.8551 23.733 15.4001 20.4858 15.4001 17.0003V14.1113C15.4001 7.90008 18.3335 4 24.2003 4C30.0671 4 33.0005 7.87553 33.0005 14.1113V15.5558C33.0005 23.4903 29.9996 28.5561 25.5687 28.5561" stroke="#25386C" stroke-width="3" stroke-linecap="round" stroke-linejoin="round"/>
</svg>
