<svg width="30" height="28" viewBox="0 0 30 28" fill="none" xmlns="http://www.w3.org/2000/svg">
<path d="M25.3427 10.5158V22.0605C25.3427 22.6644 25.0909 23.2436 24.6427 23.6706C24.1944 24.0976 23.5865 24.3375 22.9526 24.3375H21.2078H5.95064C5.31673 24.3375 4.70878 24.0976 4.26054 23.6706C3.8123 23.2436 3.56049 22.6644 3.56049 22.0605V10.5158C3.56074 10.1074 3.67625 9.70668 3.89492 9.35547C4.11358 9.00427 4.42735 8.71555 4.80336 8.51955L13.3043 4.07927C13.6561 3.89591 14.0506 3.7998 14.4516 3.7998C14.8526 3.7998 15.2471 3.89591 15.5989 4.07927L24.0998 8.51955C24.4759 8.71555 24.7896 9.00427 25.0083 9.35547C25.227 9.70668 25.3425 10.1074 25.3427 10.5158Z" fill="#25386C"/>
</svg>
