<svg width="24" height="24" viewBox="0 0 24 24" fill="none" xmlns="http://www.w3.org/2000/svg">
<line x1="17.25" y1="7.25" x2="17.25" y2="2.75" stroke="#25386C" stroke-width="1.5" stroke-linecap="round" stroke-linejoin="round"/>
<line x1="7.25" y1="7.25" x2="7.25" y2="2.75" stroke="#25386C" stroke-width="1.5" stroke-linecap="round" stroke-linejoin="round"/>
<path fill-rule="evenodd" clip-rule="evenodd" d="M5 5.5H19C19.8284 5.5 20.5 6.17157 20.5 7V8.56018C20.7309 8.45282 20.9882 8.39288 21.2596 8.39288C21.5235 8.39288 21.7741 8.44955 22 8.55137V7C22 5.34315 20.6569 4 19 4H5C3.34315 4 2 5.34315 2 7V19C2 20.6569 3.34315 22 5 22H19C20.6569 22 22 20.6569 22 19V11.8415C21.7741 11.9433 21.5235 12 21.2596 12C20.9882 12 20.7309 11.9401 20.5 11.8327V19C20.5 19.8284 19.8284 20.5 19 20.5H5C4.17157 20.5 3.5 19.8284 3.5 19V7C3.5 6.17157 4.17157 5.5 5 5.5Z" fill="#25386C"/>
<circle cx="21.2449" cy="8.51636" r="0.754642" fill="#25386C"/>
<circle cx="21.2449" cy="11.8147" r="0.754642" fill="#25386C"/>
</svg>
