<svg width="29" height="34" viewBox="0 0 29 34" fill="none" xmlns="http://www.w3.org/2000/svg">
<path d="M14.2842 25.6426C14.2842 26.9444 15.3395 27.9997 16.6413 27.9997C17.9431 27.9997 18.9985 26.9444 18.9985 25.6426" stroke="#25386C" stroke-width="1.5" stroke-linecap="round"/>
<path d="M22.9285 19.7496L25.0078 23.2152C25.1576 23.4649 25.0636 23.7858 24.7962 23.9011C23.6032 24.4157 20.3683 25.6425 16.6428 25.6425C12.9172 25.6425 9.68241 24.4157 8.48941 23.9011C8.22197 23.7858 8.12795 23.4649 8.2778 23.2152L10.3571 19.7496L10.9834 14.1128C11.2978 11.2833 13.6895 9.14258 16.5365 9.14258V9.14258C19.306 9.14258 21.6576 11.1714 22.0635 13.911L22.1427 14.4461" stroke="#25386C" stroke-width="1.5" stroke-linecap="round"/>
<path fill-rule="evenodd" clip-rule="evenodd" d="M16.6437 9.14283C17.5116 9.14283 18.2151 8.43928 18.2151 7.57142C18.2151 6.70355 17.5116 6 16.6437 6C15.7758 6 15.0723 6.70355 15.0723 7.57142C15.0723 8.43928 15.7758 9.14283 16.6437 9.14283Z" stroke="#25386C" stroke-width="1.5" stroke-linecap="round"/>
<path d="M10.3555 19.75C10.3555 19.75 13.1054 20.9286 16.6411 20.9286C17.956 20.9286 19.1623 20.7656 20.1588 20.5608" stroke="#25386C" stroke-width="1.5" stroke-linecap="round"/>
</svg>
