<svg width="24" height="24" viewBox="0 0 24 24" fill="none" xmlns="http://www.w3.org/2000/svg">
<path d="M12.5247 2.24414C8.75156 2.24414 7.13449 5.47828 8.48205 8.4429L12.5247 18.9539" stroke="#25386C" stroke-width="1.5" stroke-linecap="round" stroke-linejoin="round"/>
<path d="M12.5243 8.71257C13.715 8.71257 14.6803 7.74726 14.6803 6.55648C14.6803 5.36571 13.715 4.40039 12.5243 4.40039C11.3335 4.40039 10.3682 5.36571 10.3682 6.55648C10.3682 7.74726 11.3335 8.71257 12.5243 8.71257Z" stroke="#25386C" stroke-width="1.5" stroke-linecap="round" stroke-linejoin="round"/>
<path d="M11.4618 16.1887C8.41041 16.4091 6.08398 17.5632 6.08398 18.9539C6.08398 20.5019 8.96776 21.7568 12.5253 21.7568C16.0829 21.7568 18.9666 20.5019 18.9666 18.9539C18.9666 17.5632 16.6402 16.4091 13.5888 16.1887L16.568 8.4429C17.9155 5.47828 16.2985 2.24414 12.5253 2.24414" stroke="#25386C" stroke-width="1.5" stroke-linecap="round" stroke-linejoin="round"/>
</svg>
