<svg width="78" height="76" viewBox="0 0 78 76" fill="none" xmlns="http://www.w3.org/2000/svg">
<g filter="url(#filter0_d_310_2205)">
<ellipse cx="39" cy="38" rx="27" ry="26" fill="#25386C"/>
</g>
<path d="M27.95 43.696H25.9757C25.9757 43.696 24.7798 43.8397 24.7798 42.7088C24.7798 41.5779 25.0916 37.6285 28.8964 37.4847C28.3613 36.3538 27.724 34.8315 27.827 33.7206C27.8885 33.1854 28.2998 31.561 30.2949 31.6025C30.3979 31.6025 32.5368 31.6441 32.619 33.8028C32.619 34.4817 32.619 35.5511 31.5903 37.567C32.619 37.6518 35.416 37.9168 35.6013 41.5979V45.821C35.6013 45.821 35.6766 46.5509 34.731 46.5977H32.7922C32.3878 46.5977 32.0545 46.279 32.0389 45.8755C31.9445 43.5115 32.1298 36.1503 38.0908 36.0586C38.0908 36.0586 36.0611 33.2616 36.2256 31.3419C36.2256 30.6561 36.3356 27.9137 39.6806 27.996C43.0265 27.996 42.7521 31.5332 42.7521 31.5332C42.7521 31.5332 43.0266 33.3162 40.8869 36.0031C40.8869 36.0031 47.1492 35.5096 47.0271 45.575C47.021 46.0461 46.634 46.4245 46.1629 46.4245H44.2328C44.2328 46.4245 43.2733 46.4245 43.2733 44.9983V41.8992C43.2733 41.8992 43.4379 37.5116 47.4419 37.457C47.0583 36.6344 46.2625 35.5096 46.4002 33.8643C46.4547 33.1239 46.647 31.6155 48.7858 31.6155C50.9246 31.6155 51.1714 33.2885 51.1446 34.1111C51.1446 34.9337 51.09 35.6195 50.0752 37.4839C51.1446 37.4839 54.2705 37.8406 54.216 42.6673C54.216 42.8863 54.3528 43.806 53.3388 43.799C52.324 43.7921 51.09 43.799 51.09 43.799" stroke="white" stroke-width="1.5" stroke-miterlimit="10" stroke-linecap="round"/>
<defs>
<filter id="filter0_d_310_2205" x="0" y="0" width="78" height="76" filterUnits="userSpaceOnUse" color-interpolation-filters="sRGB">
<feFlood flood-opacity="0" result="BackgroundImageFix"/>
<feColorMatrix in="SourceAlpha" type="matrix" values="0 0 0 0 0 0 0 0 0 0 0 0 0 0 0 0 0 0 127 0" result="hardAlpha"/>
<feOffset/>
<feGaussianBlur stdDeviation="6"/>
<feColorMatrix type="matrix" values="0 0 0 0 0.145098 0 0 0 0 0.219608 0 0 0 0 0.423529 0 0 0 1 0"/>
<feBlend mode="normal" in2="BackgroundImageFix" result="effect1_dropShadow_310_2205"/>
<feBlend mode="normal" in="SourceGraphic" in2="effect1_dropShadow_310_2205" result="shape"/>
</filter>
</defs>
</svg>
